<svg width="75" height="64" viewBox="0 0 75 64" fill="none" xmlns="http://www.w3.org/2000/svg">
<g clip-path="url(#clip0_773_1596)">
<path d="M63.8784 14.1157L24.3094 0.741462C16.1849 -2.00517 7.51105 3.12018 5.03431 12.1305L0.667945 28.0156C-1.80729 37.0259 2.81415 46.6458 10.9386 49.391L19.8601 52.4064L14.241 63.9951L29.2312 55.5705L50.5122 62.7607C58.6321 65.5134 67.306 60.391 69.7828 51.3807L74.1491 35.4926C76.6244 26.4823 72.0029 16.8624 63.8784 14.1157Z" fill="#D1DD26"/>
<path d="M30.9609 36.4369L30.9669 37.8019C30.651 37.3962 30.263 37.0514 29.8222 36.7845C29.0939 36.3403 28.2065 36.1207 27.1601 36.1255C26.4104 36.1227 25.6676 36.2683 24.9751 36.554C24.314 36.8297 23.7188 37.2409 23.2283 37.7609C22.7275 38.2945 22.3391 38.9223 22.086 39.6074C21.8093 40.3631 21.6748 41.1629 21.6891 41.967C21.6947 43.1095 21.9375 44.1181 22.4174 44.9927C22.8733 45.839 23.5555 46.5437 24.3888 47.0288C25.2487 47.5225 26.2281 47.7729 27.2208 47.7529C28.268 47.7465 29.153 47.5176 29.8756 47.0662C30.314 46.7963 30.6991 46.4491 31.0119 46.0415L31.0191 47.4077L33.7929 47.3932L33.7346 36.4224L30.9609 36.4369ZM30.2325 43.5577C29.9972 44.0011 29.6414 44.3699 29.2056 44.6222C28.7529 44.8706 28.2447 45.0022 27.7277 45.0047C27.2106 45.0072 26.7012 44.8807 26.2461 44.6367C25.8077 44.389 25.448 44.024 25.2082 43.583C24.9573 43.0766 24.8256 42.52 24.8228 41.9555C24.8201 41.391 24.9465 40.8332 25.1924 40.3243C25.4276 39.8813 25.783 39.5125 26.2182 39.2599C26.6711 39.0121 27.1791 38.881 27.6961 38.8785C28.213 38.876 28.7223 39.0021 29.1777 39.2454C29.6161 39.493 29.9757 39.8581 30.2155 40.299C30.4662 40.8055 30.598 41.3619 30.601 41.9264C30.6039 42.4909 30.4779 43.0486 30.2325 43.5577ZM64.7486 43.927C64.7646 44.6103 64.5572 45.2803 64.1575 45.8363C63.7353 46.4045 63.163 46.8453 62.5041 47.1096C61.717 47.429 60.873 47.5867 60.0229 47.5731C59.102 47.5869 58.1844 47.4616 57.3013 47.2013C56.5331 46.9799 55.8102 46.6253 55.1661 46.1537L56.1931 43.933C56.7708 44.3221 57.401 44.6281 58.0649 44.8418C58.6883 45.0516 59.3417 45.16 59.9999 45.1629C60.61 45.1629 61.0806 45.0683 61.4116 44.8792C61.5623 44.8065 61.6888 44.6924 61.7761 44.5503C61.8635 44.4083 61.908 44.2443 61.9045 44.0779C61.9084 43.9321 61.8679 43.7886 61.7885 43.666C61.709 43.5435 61.5941 43.4477 61.459 43.3911C61.1644 43.2447 60.5939 43.0866 59.7474 42.9168C58.2907 42.6634 57.2257 42.2578 56.5524 41.7002C55.8791 41.1426 55.5404 40.3718 55.5363 39.3878C55.5215 38.7293 55.7231 38.0839 56.1105 37.5497C56.522 36.9969 57.0766 36.5656 57.7153 36.3017C58.4614 35.9926 59.2633 35.839 60.0715 35.8503C60.909 35.8404 61.7433 35.9551 62.5466 36.1907C63.2644 36.3956 63.9395 36.7267 64.5399 37.1683L63.5469 39.3986C63.238 39.1585 62.9014 38.9559 62.5442 38.7952C62.1653 38.6215 61.7696 38.4868 61.3631 38.3933C60.9654 38.2991 60.5579 38.2521 60.1492 38.2533C59.6175 38.2533 59.1886 38.3442 58.8624 38.526C58.5363 38.7079 58.3744 38.9565 58.3769 39.2719C58.3732 39.4206 58.4142 39.5669 58.4946 39.6923C58.5751 39.8176 58.6913 39.9163 58.8284 39.9756C59.1271 40.1268 59.6851 40.2906 60.5024 40.4668C62.0246 40.7773 63.1095 41.1933 63.7569 41.7147C64.4043 42.2361 64.7333 42.9715 64.7438 43.921L64.7486 43.927ZM17.5545 35.201L17.6177 47.4705L14.3632 47.4874L14.3001 35.2155L10.1509 35.236L10.1364 32.3044L21.6903 32.2465L21.7049 35.1781L17.5545 35.201ZM11.1403 25.5077C10.4645 24.3274 10.1226 22.9378 10.1145 21.3391C10.0958 20.2438 10.2903 19.1553 10.6875 18.1335C11.0597 17.1839 11.6253 16.321 12.3486 15.5989C13.072 14.8767 13.9376 14.311 14.8912 13.9371C15.9138 13.534 17.0045 13.3292 18.1044 13.3336C19.3426 13.328 20.3918 13.478 21.2521 13.7838C22.0955 14.0823 22.881 14.5228 23.5743 15.086L21.944 17.7388C21.4954 17.306 20.9567 16.9764 20.3659 16.7733C19.7136 16.5527 19.0277 16.4461 18.3387 16.4583C17.6434 16.4509 16.9525 16.5687 16.2994 16.8059C15.7276 17.015 15.208 17.3444 14.7759 17.7714C14.3515 18.2013 14.026 18.7177 13.8218 19.2849C13.5951 19.9249 13.4857 20.6002 13.4989 21.2787C13.5037 22.2925 13.7061 23.1547 14.1058 23.8651C14.4998 24.5672 15.097 25.1353 15.8199 25.4957C16.5603 25.8754 17.4441 26.0629 18.471 26.0581C19.1843 26.0544 19.8928 25.9408 20.5711 25.7214C21.2775 25.4908 21.9356 25.1342 22.5133 24.6689L24.0125 27.3652C23.2508 27.9447 22.397 28.3934 21.4864 28.6928C20.4039 29.0375 19.2725 29.2062 18.136 29.1924C16.5555 29.2013 15.1631 28.8847 13.959 28.2426C12.7745 27.6193 11.7959 26.6698 11.1403 25.5077ZM59.1635 28.9849C59.7303 28.9783 60.2952 28.9189 60.8508 28.8074C61.4186 28.6979 61.9749 28.5363 62.5126 28.3247C62.9803 28.1452 63.4204 27.9014 63.82 27.6005L62.7493 25.4353C62.2469 25.7866 61.6918 26.0566 61.1045 26.2355C60.5101 26.4144 59.8925 26.5055 59.2715 26.5059C58.6893 26.5219 58.1102 26.4158 57.572 26.1945C57.1211 26.0102 56.73 25.7057 56.4419 25.3146C56.1701 24.9253 56.0282 24.4609 56.0365 23.987L64.4889 23.9448C64.6464 23.0774 64.6253 22.1873 64.427 21.3282C64.2474 20.561 63.8946 19.8445 63.3951 19.233C62.8972 18.6331 62.2643 18.158 61.5476 17.8462C60.7453 17.5061 59.8788 17.3415 59.0069 17.3635C58.1913 17.3589 57.3823 17.5084 56.6228 17.804C55.9198 18.0807 55.2794 18.4939 54.7388 19.0194C54.2041 19.544 53.7838 20.1726 53.5043 20.8659C53.2071 21.6089 53.0606 22.403 53.0733 23.2025C53.0798 24.3684 53.34 25.3842 53.8539 26.25C54.3613 27.1109 55.1032 27.8117 55.994 28.2716C56.906 28.7543 57.9625 28.9921 59.1635 28.9849ZM57.061 20.2758C57.5579 19.8968 58.1847 19.7057 58.9413 19.7025C59.698 19.6993 60.2944 19.8843 60.7306 20.2577C61.1652 20.6318 61.395 21.1407 61.4201 21.7844L56.2113 21.811C56.2359 21.5099 56.3244 21.2175 56.4708 20.9529C56.6173 20.6883 56.8184 20.4575 57.061 20.2758ZM49.831 40.6949L54.1573 47.2846L50.3675 47.3039L47.527 42.7792L46.3532 44.0018L46.3702 47.3245L43.1812 47.3401L43.1023 31.7046L46.2913 31.6889L46.335 40.2664L49.9621 36.3391L53.6754 36.321L49.831 40.6949ZM39.9984 31.7215L40.0785 47.357L36.8896 47.3727L36.8095 31.7384L39.9984 31.7215ZM46.9383 28.3778C47.3934 28.1079 47.795 27.7573 48.123 27.3435L48.1303 28.7145L50.9041 28.7L50.8228 13.0645L47.6338 13.0801L47.663 18.6935C47.3382 18.4002 46.9753 18.1518 46.5838 17.9549C45.8398 17.5976 45.0209 17.4213 44.1948 17.4407C43.4264 17.4367 42.6656 17.5925 41.9613 17.8981C41.2974 18.1897 40.7012 18.6141 40.2096 19.1449C39.7124 19.6833 39.3242 20.3119 39.0661 20.9963C38.7921 21.7259 38.6575 22.4999 38.6692 23.2786C38.674 24.4227 38.9168 25.4313 39.3975 26.3043C39.8525 27.1496 40.5323 27.8543 41.3628 28.3416C42.225 28.8346 43.2066 29.083 44.2009 29.0597C45.2861 29.0549 46.1986 28.8276 46.9383 28.3778ZM42.204 24.8922C41.9496 24.3868 41.8158 23.83 41.8128 23.2649C41.8099 22.6997 41.9379 22.1415 42.187 21.6335C42.4273 21.1888 42.7887 20.8203 43.2298 20.5703C43.696 20.3219 44.2163 20.1907 44.7452 20.1879C45.2741 20.1852 45.7957 20.311 46.2645 20.5546C46.7077 20.7997 47.0715 21.1651 47.3134 21.6082C47.565 22.1146 47.6969 22.6715 47.6987 23.2363C47.7006 23.8011 47.5726 24.3588 47.3243 24.8669C47.0841 25.312 46.7227 25.6808 46.2815 25.9314C45.8171 26.1799 45.2984 26.3113 44.771 26.314C44.2436 26.3167 43.7235 26.1907 43.2565 25.9471C42.813 25.7007 42.4483 25.3351 42.204 24.8922ZM37.272 23.2882C37.2757 22.2687 37.0004 21.2675 36.4756 20.3916C35.9529 19.5132 35.2074 18.7865 34.3137 18.2844C33.3968 17.7606 32.3447 17.5019 31.1575 17.5083C30.3186 17.5038 29.4874 17.6681 28.7139 17.9911C27.9948 18.291 27.3406 18.7262 26.7875 19.2728C26.2501 19.8063 25.8232 20.4394 25.5311 21.1363C25.1907 21.9581 25.046 22.847 25.1081 23.7336C25.1702 24.6202 25.4375 25.4806 25.8892 26.2476C26.4144 27.1246 27.162 27.8492 28.0572 28.3488C28.9123 28.8033 29.8574 29.0655 30.8257 29.1168C31.794 29.1681 32.7617 29.0073 33.6606 28.6457C34.3795 28.3463 35.0324 27.9096 35.5822 27.3604C36.1179 26.8256 36.5438 26.1922 36.8362 25.4957C37.1306 24.796 37.2793 24.0442 37.2732 23.2858L37.272 23.2882ZM33.7516 24.9296C33.5123 25.3766 33.1508 25.7473 32.7089 25.999C32.244 26.2469 31.7251 26.3778 31.1976 26.3804C30.67 26.3829 30.1499 26.2569 29.6826 26.0134C29.2395 25.7673 28.8745 25.4028 28.629 24.961C28.3762 24.4553 28.2429 23.8989 28.2391 23.3342C28.2353 22.7695 28.3612 22.2114 28.6071 21.7023C28.8452 21.256 29.2071 20.887 29.6499 20.639C30.1151 20.3819 30.6398 20.25 31.1721 20.2565C31.7019 20.2425 32.226 20.3674 32.6919 20.6185C33.1347 20.8632 33.4981 21.2282 33.7395 21.671C33.9923 22.1769 34.1249 22.7339 34.127 23.2989C34.1291 23.8639 34.0007 24.4218 33.7516 24.9296Z" fill="#090833"/>
</g>
<defs>
<clipPath id="clip0_773_1596">
<rect width="74.8169" height="64" fill="white"/>
</clipPath>
</defs>
</svg>
